<svg width="137" height="95" viewBox="0 0 137 95" fill="none" xmlns="http://www.w3.org/2000/svg">
<path d="M58.5955 22.18L56.717 21.4936L56.7111 21.5096L56.7055 21.5258L58.5955 22.18ZM55.3055 29.32L53.5754 28.3166L53.5679 28.3296L53.5605 28.3428L55.3055 29.32ZM50.8955 36.11L49.2914 34.9155L49.2872 34.9212L50.8955 36.11ZM46.2055 42.06L47.4293 43.6419L47.5961 43.5129L47.7323 43.3519L46.2055 42.06ZM42.4955 44.93L41.2718 43.3481L40.4955 43.9486V44.93H42.4955ZM42.4955 45.28H40.4955V47.7063L42.8773 47.2432L42.4955 45.28ZM47.5355 44.3V42.3H47.3429L47.1538 42.3368L47.5355 44.3ZM60.9755 44.3H62.9755V42.3H60.9755V44.3ZM60.9755 52V54H62.9755V52H60.9755ZM31.5055 52H29.5055V54H31.5055V52ZM31.5055 47.31L30.0627 45.9249L29.5055 46.5054V47.31H31.5055ZM35.2855 43.25L36.7654 44.5953L36.7754 44.5844L36.7852 44.5732L35.2855 43.25ZM39.4855 38.28L37.9358 37.0157L37.932 37.0204L39.4855 38.28ZM43.6855 32.82L42.0663 31.6461L43.6855 32.82ZM47.3255 27.22L49.0593 28.2169L49.0646 28.2078L49.0698 28.1985L47.3255 27.22ZM49.8455 21.69L47.9688 20.9986L47.9607 21.0205L47.9532 21.0426L49.8455 21.69ZM49.1455 11.96L47.623 13.2569L47.6489 13.2873L47.6759 13.3166L49.1455 11.96ZM39.3455 11.05L40.0786 12.9108L40.0928 12.9052L40.107 12.8994L39.3455 11.05ZM35.4255 13.43L33.6844 14.4141L34.9198 16.5999L36.774 14.907L35.4255 13.43ZM31.7855 6.99L30.5169 5.44385L29.2171 6.51037L30.0444 7.97411L31.7855 6.99ZM37.9455 3.42L38.6686 5.28472L38.6785 5.28089L38.6883 5.27695L37.9455 3.42ZM51.6655 2.86L51.0331 4.75736L51.0331 4.75737L51.6655 2.86ZM56.0055 5.31L57.3307 3.812L57.3307 3.812L56.0055 5.31ZM58.8755 9.37L57.0372 10.1578L57.0414 10.1676L57.0457 10.1773L58.8755 9.37ZM57.9255 14.97C57.9255 17.0966 57.5302 19.268 56.717 21.4936L60.474 22.8664C61.4342 20.2386 61.9255 17.6034 61.9255 14.97H57.9255ZM56.7055 21.5258C55.9096 23.8252 54.8676 26.0887 53.5754 28.3166L57.0356 30.3234C58.4501 27.8847 59.6015 25.3881 60.4855 22.8342L56.7055 21.5258ZM53.5605 28.3428C52.297 30.599 50.8743 32.7899 49.2914 34.9155L52.4996 37.3045C54.1834 35.0434 55.7007 32.7076 57.0505 30.2972L53.5605 28.3428ZM49.2872 34.9212C47.7235 37.0367 46.1873 38.9853 44.6787 40.7681L47.7323 43.3519C49.3037 41.4947 50.8942 39.4766 52.5039 37.2988L49.2872 34.9212ZM44.9818 40.4781L41.2718 43.3481L43.7193 46.5119L47.4293 43.6419L44.9818 40.4781ZM40.4955 44.93V45.28H44.4955V44.93H40.4955ZM42.8773 47.2432L47.9172 46.2632L47.1538 42.3368L42.1138 43.3168L42.8773 47.2432ZM47.5355 46.3H60.9755V42.3H47.5355V46.3ZM58.9755 44.3V52H62.9755V44.3H58.9755ZM60.9755 50H31.5055V54H60.9755V50ZM33.5055 52V47.31H29.5055V52H33.5055ZM32.9483 48.6951C34.0838 47.5123 35.3565 46.1452 36.7654 44.5953L33.8056 41.9047C32.4146 43.4348 31.1672 44.7744 30.0627 45.9249L32.9483 48.6951ZM36.7852 44.5732C38.2045 42.9647 39.6224 41.2868 41.039 39.5396L37.932 37.0204C36.5486 38.7266 35.1666 40.3619 33.7858 41.9268L36.7852 44.5732ZM41.0352 39.5443C42.5061 37.7413 43.9293 35.8911 45.3047 33.9939L42.0663 31.6461C40.7351 33.4822 39.3583 35.2721 37.9358 37.0157L41.0352 39.5443ZM45.3047 33.9939C46.6965 32.0743 47.9486 30.1487 49.0593 28.2169L45.5917 26.2231C44.5558 28.0246 43.3812 29.8324 42.0663 31.6461L45.3047 33.9939ZM49.0698 28.1985C50.1927 26.1969 51.086 24.2428 51.7378 22.3374L47.9532 21.0426C47.3917 22.6839 46.605 24.4165 45.5812 26.2415L49.0698 28.1985ZM51.7222 22.3814C52.4419 20.4279 52.8255 18.5129 52.8255 16.65H48.8255C48.8255 17.9604 48.5558 19.4054 47.9688 20.9986L51.7222 22.3814ZM52.8255 16.65C52.8255 14.3192 52.1299 12.2445 50.6151 10.6034L47.6759 13.3166C48.4011 14.1022 48.8255 15.1541 48.8255 16.65H52.8255ZM50.668 10.6631C49.0713 8.78872 46.6669 8.07 43.9655 8.07V12.07C46.0241 12.07 47.073 12.6113 47.623 13.2569L50.668 10.6631ZM43.9655 8.07C42.1749 8.07 40.3766 8.46253 38.584 9.20064L40.107 12.8994C41.4878 12.3308 42.7694 12.07 43.9655 12.07V8.07ZM38.6125 9.18918C36.8768 9.87293 35.3535 10.7875 34.077 11.953L36.774 14.907C37.6441 14.1125 38.7342 13.4404 40.0786 12.9108L38.6125 9.18918ZM37.1666 12.4459L33.5266 6.00589L30.0444 7.97411L33.6844 14.4141L37.1666 12.4459ZM33.0541 8.53615C34.7036 7.18279 36.5712 6.098 38.6686 5.28472L37.2225 1.55528C34.7465 2.51533 32.5075 3.81055 30.5169 5.44385L33.0541 8.53615ZM38.6883 5.27695C40.7354 4.45809 43.2033 4.02 46.1355 4.02V0.0199968C42.8144 0.0199968 39.8222 0.515237 37.2027 1.56305L38.6883 5.27695ZM46.1355 4.02C47.9554 4.02 49.5821 4.27372 51.0331 4.75736L52.298 0.962632C50.3889 0.32627 48.3289 0.0199968 46.1355 0.0199968V4.02ZM51.0331 4.75737C52.4816 5.24021 53.6868 5.92906 54.6804 6.80799L57.3307 3.812C55.8976 2.54427 54.2094 1.59978 52.298 0.962631L51.0331 4.75737ZM54.6804 6.80799C55.6515 7.66708 56.4422 8.76956 57.0372 10.1578L60.7138 8.58216C59.9088 6.70377 58.7862 5.09958 57.3307 3.812L54.6804 6.80799ZM57.0457 10.1773C57.6101 11.4567 57.9255 13.037 57.9255 14.97H61.9255C61.9255 12.6096 61.5409 10.4566 60.7053 8.56272L57.0457 10.1773ZM78.5023 8.32L80.1347 9.47554L80.1408 9.46692L78.5023 8.32ZM104.122 8.25L102.455 9.35509L102.461 9.36375L104.122 8.25ZM103.772 46.68L102.142 45.521L102.138 45.527L102.134 45.5331L103.772 46.68ZM78.2223 46.4L76.5233 47.4552L76.5283 47.4632L78.2223 46.4ZM85.0123 40.66L83.1478 41.3835L83.1543 41.4005L83.1612 41.4173L85.0123 40.66ZM97.1923 41.01L95.3746 40.1757L95.369 40.188L95.3634 40.2005L97.1923 41.01ZM97.3323 14.34L95.4715 15.073H95.4715L97.3323 14.34ZM85.0123 14.06L83.1786 13.2615L83.1732 13.274L83.1679 13.2865L85.0123 14.06ZM76.0923 27.43C76.0923 19.0013 77.5483 13.1294 80.1347 9.47552L76.8699 7.16447C73.5764 11.8173 72.0923 18.6853 72.0923 27.43H76.0923ZM80.1408 9.46692C82.675 5.84657 86.2614 4.02 91.1723 4.02V0.0199968C85.0699 0.0199968 80.2096 2.39343 76.8638 7.17307L80.1408 9.46692ZM91.1723 4.02C96.5213 4.02 100.144 5.86773 102.455 9.35507L105.789 7.14493C102.594 2.3256 97.5833 0.0199968 91.1723 0.0199968V4.02ZM102.461 9.36375C104.882 12.9749 106.252 18.8832 106.252 27.43H110.252C110.252 18.6168 108.869 11.7385 105.784 7.13625L102.461 9.36375ZM106.252 27.43C106.252 35.9011 104.774 41.8197 102.142 45.521L105.402 47.839C108.744 43.1403 110.252 36.2255 110.252 27.43H106.252ZM102.134 45.5331C99.5996 49.1534 96.0133 50.98 91.1023 50.98V54.98C97.2047 54.98 102.065 52.6066 105.411 47.8269L102.134 45.5331ZM91.1023 50.98C85.8542 50.98 82.2521 49.0583 79.9163 45.3368L76.5283 47.4632C79.6992 52.515 84.6838 54.98 91.1023 54.98V50.98ZM79.9213 45.3448C77.4472 41.3611 76.0923 35.466 76.0923 27.43H72.0923C72.0923 35.8206 73.4907 42.5722 76.5233 47.4552L79.9213 45.3448ZM81.1923 27.43C81.1923 33.2227 81.8036 37.9197 83.1478 41.3835L86.8768 39.9365C85.7944 37.147 85.1923 33.024 85.1923 27.43H81.1923ZM83.1612 41.4173C83.8884 43.1947 84.9076 44.6828 86.2973 45.725C87.7079 46.783 89.3659 47.28 91.1723 47.28V43.28C90.132 43.28 89.34 43.007 88.6973 42.525C88.0336 42.0272 87.3963 41.2053 86.8634 39.9027L83.1612 41.4173ZM91.1723 47.28C92.912 47.28 94.5182 46.8235 95.8994 45.8438C97.265 44.8752 98.2835 43.486 99.0212 41.8195L95.3634 40.2005C94.8411 41.3807 94.2263 42.1265 93.5852 42.5812C92.9598 43.0248 92.1859 43.28 91.1723 43.28V47.28ZM99.01 41.8443C100.505 38.5872 101.152 33.6966 101.152 27.43H97.1523C97.1523 33.5768 96.4929 37.7395 95.3746 40.1757L99.01 41.8443ZM101.152 27.43C101.152 21.6842 100.541 17.029 99.1931 13.6069L95.4715 15.073C96.5501 17.811 97.1523 21.8825 97.1523 27.43H101.152ZM99.1931 13.6069C98.4873 11.8153 97.4685 10.3159 96.0561 9.26852C94.6269 8.20864 92.9399 7.72 91.1023 7.72V11.72C92.2047 11.72 93.0261 12.0014 93.6735 12.4815C94.3378 12.9741 94.964 13.7847 95.4715 15.073L99.1931 13.6069ZM91.1023 7.72C89.3397 7.72 87.7141 8.18216 86.3191 9.17627C84.9396 10.1593 83.9155 11.5695 83.1786 13.2615L86.846 14.8585C87.3692 13.6571 87.99 12.8973 88.6405 12.4337C89.2756 11.9812 90.0649 11.72 91.1023 11.72V7.72ZM83.1679 13.2865C81.7958 16.5584 81.1923 21.3434 81.1923 27.43H85.1923C85.1923 21.4766 85.8021 17.3482 86.8567 14.8334L83.1679 13.2865Z" fill="white"/>
<path d="M10.638 78.316V88H7.83V80.62H4.77L4.68 82.33C4.632 83.602 4.512 84.658 4.32 85.498C4.128 86.338 3.816 86.998 3.384 87.478C2.952 87.958 2.352 88.198 1.584 88.198C1.176 88.198 0.69 88.126 0.126 87.982L0.27 85.678C0.462 85.702 0.6 85.714 0.684 85.714C1.104 85.714 1.416 85.564 1.62 85.264C1.836 84.952 1.98 84.562 2.052 84.094C2.124 83.614 2.178 82.984 2.214 82.204L2.358 78.316H10.638ZM22.7523 83.194C22.7523 83.23 22.7343 83.482 22.6983 83.95H15.3723C15.5043 84.55 15.8163 85.024 16.3083 85.372C16.8003 85.72 17.4123 85.894 18.1443 85.894C18.6483 85.894 19.0923 85.822 19.4763 85.678C19.8723 85.522 20.2383 85.282 20.5743 84.958L22.0683 86.578C21.1563 87.622 19.8243 88.144 18.0723 88.144C16.9803 88.144 16.0143 87.934 15.1743 87.514C14.3343 87.082 13.6863 86.488 13.2303 85.732C12.7743 84.976 12.5463 84.118 12.5463 83.158C12.5463 82.21 12.7683 81.358 13.2123 80.602C13.6683 79.834 14.2863 79.24 15.0663 78.82C15.8583 78.388 16.7403 78.172 17.7123 78.172C18.6603 78.172 19.5183 78.376 20.2863 78.784C21.0543 79.192 21.6543 79.78 22.0863 80.548C22.5303 81.304 22.7523 82.186 22.7523 83.194ZM17.7303 80.296C17.0943 80.296 16.5603 80.476 16.1283 80.836C15.6963 81.196 15.4323 81.688 15.3363 82.312H20.1063C20.0103 81.7 19.7463 81.214 19.3143 80.854C18.8823 80.482 18.3543 80.296 17.7303 80.296ZM32.7067 80.62H29.4307V88H26.6407V80.62H23.3647V78.316H32.7067V80.62ZM39.3012 78.316H42.0912V82.096H46.3032V78.316H49.1112V88H46.3032V84.382H42.0912V88H39.3012V78.316ZM55.5612 78.172C57.0612 78.172 58.2132 78.532 59.0172 79.252C59.8212 79.96 60.2232 81.034 60.2232 82.474V88H57.5952V86.794C57.0672 87.694 56.0832 88.144 54.6432 88.144C53.8992 88.144 53.2512 88.018 52.6992 87.766C52.1592 87.514 51.7452 87.166 51.4572 86.722C51.1692 86.278 51.0252 85.774 51.0252 85.21C51.0252 84.31 51.3612 83.602 52.0332 83.086C52.7172 82.57 53.7672 82.312 55.1832 82.312H57.4152C57.4152 81.7 57.2292 81.232 56.8572 80.908C56.4852 80.572 55.9272 80.404 55.1832 80.404C54.6672 80.404 54.1572 80.488 53.6532 80.656C53.1612 80.812 52.7412 81.028 52.3932 81.304L51.3852 79.342C51.9132 78.97 52.5432 78.682 53.2752 78.478C54.0192 78.274 54.7812 78.172 55.5612 78.172ZM55.3452 86.254C55.8252 86.254 56.2512 86.146 56.6232 85.93C56.9952 85.702 57.2592 85.372 57.4152 84.94V83.95H55.4892C54.3372 83.95 53.7612 84.328 53.7612 85.084C53.7612 85.444 53.8992 85.732 54.1752 85.948C54.4632 86.152 54.8532 86.254 55.3452 86.254ZM73.4662 78.172C74.3662 78.172 75.1822 78.382 75.9142 78.802C76.6582 79.21 77.2402 79.792 77.6602 80.548C78.0802 81.292 78.2902 82.162 78.2902 83.158C78.2902 84.154 78.0802 85.03 77.6602 85.786C77.2402 86.53 76.6582 87.112 75.9142 87.532C75.1822 87.94 74.3662 88.144 73.4662 88.144C72.2302 88.144 71.2582 87.754 70.5502 86.974V91.492H67.7422V78.316H70.4242V79.432C71.1202 78.592 72.1342 78.172 73.4662 78.172ZM72.9802 85.84C73.7002 85.84 74.2882 85.6 74.7442 85.12C75.2122 84.628 75.4462 83.974 75.4462 83.158C75.4462 82.342 75.2122 81.694 74.7442 81.214C74.2882 80.722 73.7002 80.476 72.9802 80.476C72.2602 80.476 71.6662 80.722 71.1982 81.214C70.7422 81.694 70.5142 82.342 70.5142 83.158C70.5142 83.974 70.7422 84.628 71.1982 85.12C71.6662 85.6 72.2602 85.84 72.9802 85.84ZM85.3522 81.412C86.6122 81.424 87.5662 81.706 88.2142 82.258C88.8622 82.81 89.1862 83.602 89.1862 84.634C89.1862 85.714 88.8202 86.548 88.0882 87.136C87.3562 87.724 86.3182 88.018 84.9742 88.018L80.2582 88V78.316H83.0482V81.412H85.3522ZM90.2302 78.316H93.0202V88H90.2302V78.316ZM84.7222 86.02C85.2622 86.032 85.6762 85.918 85.9642 85.678C86.2522 85.438 86.3962 85.078 86.3962 84.598C86.3962 84.13 86.2522 83.788 85.9642 83.572C85.6882 83.356 85.2742 83.242 84.7222 83.23L83.0482 83.212V86.02H84.7222ZM95.727 78.316H98.517V82.096H102.729V78.316H105.537V88H102.729V84.382H98.517V88H95.727V78.316ZM112.491 84.328H111.033V88H108.225V78.316H111.033V82.078H112.545L115.173 78.316H118.161L114.777 82.96L118.395 88H115.083L112.491 84.328ZM128.889 83.194C128.889 83.23 128.871 83.482 128.835 83.95H121.509C121.641 84.55 121.953 85.024 122.445 85.372C122.937 85.72 123.549 85.894 124.281 85.894C124.785 85.894 125.229 85.822 125.613 85.678C126.009 85.522 126.375 85.282 126.711 84.958L128.205 86.578C127.293 87.622 125.961 88.144 124.209 88.144C123.117 88.144 122.151 87.934 121.311 87.514C120.471 87.082 119.823 86.488 119.367 85.732C118.911 84.976 118.683 84.118 118.683 83.158C118.683 82.21 118.905 81.358 119.349 80.602C119.805 79.834 120.423 79.24 121.203 78.82C121.995 78.388 122.877 78.172 123.849 78.172C124.797 78.172 125.655 78.376 126.423 78.784C127.191 79.192 127.791 79.78 128.223 80.548C128.667 81.304 128.889 82.186 128.889 83.194ZM123.867 80.296C123.231 80.296 122.697 80.476 122.265 80.836C121.833 81.196 121.569 81.688 121.473 82.312H126.243C126.147 81.7 125.883 81.214 125.451 80.854C125.019 80.482 124.491 80.296 123.867 80.296Z" fill="white"/>
</svg>
