<svg width="265" height="120" viewBox="0 0 265 120" fill="none" xmlns="http://www.w3.org/2000/svg">
<path d="M99.92 22.18L98.0415 21.4936L98.0356 21.5096L98.03 21.5258L99.92 22.18ZM96.63 29.32L94.8999 28.3166L94.8924 28.3296L94.885 28.3428L96.63 29.32ZM92.22 36.11L90.6159 34.9155L90.6116 34.9212L92.22 36.11ZM87.53 42.06L88.7537 43.6419L88.9206 43.5129L89.0568 43.3519L87.53 42.06ZM83.82 44.93L82.5963 43.3481L81.82 43.9486V44.93H83.82ZM83.82 45.28H81.82V47.7063L84.2017 47.2432L83.82 45.28ZM88.86 44.3V42.3H88.6674L88.4783 42.3368L88.86 44.3ZM102.3 44.3H104.3V42.3H102.3V44.3ZM102.3 52V54H104.3V52H102.3ZM72.83 52H70.83V54H72.83V52ZM72.83 47.31L71.3872 45.9249L70.83 46.5054V47.31H72.83ZM76.61 43.25L78.0899 44.5953L78.0999 44.5844L78.1097 44.5732L76.61 43.25ZM80.81 38.28L79.2603 37.0157L79.2565 37.0204L80.81 38.28ZM85.01 32.82L83.3908 31.6461L85.01 32.82ZM88.65 27.22L90.3838 28.2169L90.3891 28.2078L90.3943 28.1985L88.65 27.22ZM91.17 21.69L89.2933 20.9986L89.2852 21.0205L89.2777 21.0426L91.17 21.69ZM90.47 11.96L88.9475 13.2569L88.9734 13.2873L89.0004 13.3166L90.47 11.96ZM80.67 11.05L81.4031 12.9108L81.4173 12.9052L81.4315 12.8994L80.67 11.05ZM76.75 13.43L75.0089 14.4141L76.2443 16.5999L78.0985 14.907L76.75 13.43ZM73.11 6.99L71.8414 5.44385L70.5415 6.51037L71.3689 7.97411L73.11 6.99ZM79.27 3.42L79.9931 5.28472L80.0029 5.28089L80.0128 5.27695L79.27 3.42ZM92.99 2.86L92.3575 4.75736L92.3575 4.75737L92.99 2.86ZM97.33 5.31L98.6551 3.812V3.812L97.33 5.31ZM100.2 9.37L98.3617 10.1578L98.3659 10.1676L98.3702 10.1773L100.2 9.37ZM99.25 14.97C99.25 17.0966 98.8547 19.268 98.0415 21.4936L101.799 22.8664C102.759 20.2386 103.25 17.6034 103.25 14.97H99.25ZM98.03 21.5258C97.2341 23.8252 96.1921 26.0887 94.8999 28.3166L98.3601 30.3234C99.7746 27.8847 100.926 25.3881 101.81 22.8342L98.03 21.5258ZM94.885 28.3428C93.6215 30.599 92.1988 32.7899 90.6159 34.9155L93.8241 37.3045C95.5079 35.0434 97.0252 32.7076 98.375 30.2972L94.885 28.3428ZM90.6116 34.9212C89.048 37.0367 87.5118 38.9853 86.0032 40.7681L89.0568 43.3519C90.6282 41.4947 92.2187 39.4766 93.8284 37.2988L90.6116 34.9212ZM86.3063 40.4781L82.5963 43.3481L85.0437 46.5119L88.7537 43.6419L86.3063 40.4781ZM81.82 44.93V45.28H85.82V44.93H81.82ZM84.2017 47.2432L89.2417 46.2632L88.4783 42.3368L83.4383 43.3168L84.2017 47.2432ZM88.86 46.3H102.3V42.3H88.86V46.3ZM100.3 44.3V52H104.3V44.3H100.3ZM102.3 50H72.83V54H102.3V50ZM74.83 52V47.31H70.83V52H74.83ZM74.2728 48.6951C75.4083 47.5123 76.6809 46.1452 78.0899 44.5953L75.1301 41.9047C73.7391 43.4348 72.4917 44.7744 71.3872 45.9249L74.2728 48.6951ZM78.1097 44.5732C79.529 42.9647 80.9469 41.2868 82.3635 39.5396L79.2565 37.0204C77.8731 38.7266 76.491 40.3619 75.1103 41.9268L78.1097 44.5732ZM82.3597 39.5443C83.8306 37.7413 85.2538 35.8911 86.6292 33.9939L83.3908 31.6461C82.0596 33.4822 80.6827 35.2721 79.2603 37.0157L82.3597 39.5443ZM86.6292 33.9939C88.021 32.0743 89.2731 30.1487 90.3838 28.2169L86.9162 26.2231C85.8803 28.0246 84.7057 29.8324 83.3908 31.6461L86.6292 33.9939ZM90.3943 28.1985C91.5172 26.1969 92.4105 24.2428 93.0623 22.3374L89.2777 21.0426C88.7162 22.6839 87.9295 24.4165 86.9057 26.2415L90.3943 28.1985ZM93.0467 22.3814C93.7664 20.4279 94.15 18.5129 94.15 16.65H90.15C90.15 17.9604 89.8803 19.4054 89.2933 20.9986L93.0467 22.3814ZM94.15 16.65C94.15 14.3192 93.4544 12.2445 91.9396 10.6034L89.0004 13.3166C89.7256 14.1022 90.15 15.1541 90.15 16.65H94.15ZM91.9925 10.6631C90.3958 8.78872 87.9914 8.07 85.29 8.07V12.07C87.3486 12.07 88.3975 12.6113 88.9475 13.2569L91.9925 10.6631ZM85.29 8.07C83.4994 8.07 81.701 8.46253 79.9085 9.20064L81.4315 12.8994C82.8123 12.3308 84.0939 12.07 85.29 12.07V8.07ZM79.937 9.18918C78.2013 9.87293 76.678 10.7875 75.4015 11.953L78.0985 14.907C78.9686 14.1125 80.0587 13.4404 81.4031 12.9108L79.937 9.18918ZM78.4911 12.4459L74.8511 6.00589L71.3689 7.97411L75.0089 14.4141L78.4911 12.4459ZM74.3786 8.53615C76.028 7.18279 77.8957 6.098 79.9931 5.28472L78.5469 1.55528C76.071 2.51533 73.832 3.81055 71.8414 5.44385L74.3786 8.53615ZM80.0128 5.27695C82.0599 4.45809 84.5278 4.02 87.46 4.02V0.0199968C84.1389 0.0199968 81.1467 0.515237 78.5272 1.56305L80.0128 5.27695ZM87.46 4.02C89.2799 4.02 90.9066 4.27372 92.3575 4.75736L93.6225 0.962632C91.7134 0.32627 89.6534 0.0199968 87.46 0.0199968V4.02ZM92.3575 4.75737C93.8061 5.24021 95.0113 5.92906 96.0049 6.80799L98.6551 3.812C97.2221 2.54427 95.5339 1.59978 93.6225 0.962631L92.3575 4.75737ZM96.0049 6.80799C96.976 7.66708 97.7667 8.76956 98.3617 10.1578L102.038 8.58216C101.233 6.70377 100.111 5.09958 98.6551 3.812L96.0049 6.80799ZM98.3702 10.1773C98.9346 11.4567 99.25 13.037 99.25 14.97H103.25C103.25 12.6096 102.865 10.4566 102.03 8.56272L98.3702 10.1773ZM119.827 8.32L121.459 9.47554L121.465 9.46692L119.827 8.32ZM145.447 8.25L143.78 9.35509L143.786 9.36375L145.447 8.25ZM145.097 46.68L143.467 45.521L143.463 45.527L143.458 45.5331L145.097 46.68ZM119.547 46.4L117.848 47.4552L117.853 47.4632L119.547 46.4ZM126.337 40.66L124.472 41.3835L124.479 41.4005L124.486 41.4173L126.337 40.66ZM138.517 41.01L136.699 40.1757L136.693 40.188L136.688 40.2005L138.517 41.01ZM138.657 14.34L136.796 15.073L138.657 14.34ZM126.337 14.06L124.503 13.2615L124.498 13.274L124.492 13.2865L126.337 14.06ZM117.417 27.43C117.417 19.0013 118.873 13.1294 121.459 9.47552L118.194 7.16447C114.901 11.8173 113.417 18.6853 113.417 27.43H117.417ZM121.465 9.46692C124 5.84657 127.586 4.02 132.497 4.02V0.0199968C126.394 0.0199968 121.534 2.39343 118.188 7.17307L121.465 9.46692ZM132.497 4.02C137.846 4.02 141.468 5.86773 143.78 9.35507L147.114 7.14493C143.919 2.3256 138.908 0.0199968 132.497 0.0199968V4.02ZM143.786 9.36375C146.207 12.9749 147.577 18.8832 147.577 27.43H151.577C151.577 18.6168 150.194 11.7385 147.108 7.13625L143.786 9.36375ZM147.577 27.43C147.577 35.9011 146.099 41.8197 143.467 45.521L146.727 47.839C150.068 43.1403 151.577 36.2255 151.577 27.43H147.577ZM143.458 45.5331C140.924 49.1534 137.338 50.98 132.427 50.98V54.98C138.529 54.98 143.39 52.6066 146.735 47.8269L143.458 45.5331ZM132.427 50.98C127.179 50.98 123.577 49.0583 121.241 45.3368L117.853 47.4632C121.024 52.515 126.008 54.98 132.427 54.98V50.98ZM121.246 45.3448C118.772 41.3611 117.417 35.466 117.417 27.43H113.417C113.417 35.8206 114.815 42.5722 117.848 47.4552L121.246 45.3448ZM122.517 27.43C122.517 33.2227 123.128 37.9197 124.472 41.3835L128.201 39.9365C127.119 37.147 126.517 33.024 126.517 27.43H122.517ZM124.486 41.4173C125.213 43.1947 126.232 44.6828 127.622 45.725C129.032 46.783 130.69 47.28 132.497 47.28V43.28C131.456 43.28 130.665 43.007 130.022 42.525C129.358 42.0272 128.721 41.2053 128.188 39.9027L124.486 41.4173ZM132.497 47.28C134.237 47.28 135.843 46.8235 137.224 45.8438C138.59 44.8752 139.608 43.486 140.346 41.8195L136.688 40.2005C136.166 41.3807 135.551 42.1265 134.91 42.5812C134.284 43.0248 133.51 43.28 132.497 43.28V47.28ZM140.334 41.8443C141.83 38.5872 142.477 33.6966 142.477 27.43H138.477C138.477 33.5768 137.817 37.7395 136.699 40.1757L140.334 41.8443ZM142.477 27.43C142.477 21.6842 141.866 17.029 140.518 13.6069L136.796 15.073C137.875 17.811 138.477 21.8825 138.477 27.43H142.477ZM140.518 13.6069C139.812 11.8153 138.793 10.3159 137.381 9.26852C135.951 8.20864 134.264 7.72 132.427 7.72V11.72C133.529 11.72 134.351 12.0014 134.998 12.4815C135.662 12.9741 136.288 13.7847 136.796 15.073L140.518 13.6069ZM132.427 7.72C130.664 7.72 129.039 8.18216 127.644 9.17627C126.264 10.1593 125.24 11.5695 124.503 13.2615L128.17 14.8585C128.694 13.6571 129.314 12.8973 129.965 12.4337C130.6 11.9812 131.389 11.72 132.427 11.72V7.72ZM124.492 13.2865C123.12 16.5584 122.517 21.3434 122.517 27.43H126.517C126.517 21.4766 127.127 17.3482 128.181 14.8334L124.492 13.2865ZM160.244 24.42V22.42H158.244V24.42H160.244ZM171.584 24.42V26.42H173.584V24.42H171.584ZM171.584 12.59V10.59H169.584V12.59H171.584ZM179.774 12.59H181.774V10.59H179.774V12.59ZM179.774 24.42H177.774V26.42H179.774V24.42ZM191.184 24.42H193.184V22.42H191.184V24.42ZM191.184 32.26V34.26H193.184V32.26H191.184ZM179.774 32.26V30.26H177.774V32.26H179.774ZM179.774 44.23V46.23H181.774V44.23H179.774ZM171.584 44.23H169.584V46.23H171.584V44.23ZM171.584 32.26H173.584V30.26H171.584V32.26ZM160.244 32.26H158.244V34.26H160.244V32.26ZM160.244 26.42H171.584V22.42H160.244V26.42ZM173.584 24.42V12.59H169.584V24.42H173.584ZM171.584 14.59H179.774V10.59H171.584V14.59ZM177.774 12.59V24.42H181.774V12.59H177.774ZM179.774 26.42H191.184V22.42H179.774V26.42ZM189.184 24.42V32.26H193.184V24.42H189.184ZM191.184 30.26H179.774V34.26H191.184V30.26ZM177.774 32.26V44.23H181.774V32.26H177.774ZM179.774 42.23H171.584V46.23H179.774V42.23ZM173.584 44.23V32.26H169.584V44.23H173.584ZM171.584 30.26H160.244V34.26H171.584V30.26ZM162.244 32.26V24.42H158.244V32.26H162.244Z" fill="white"/>
<path d="M19.5492 82.194C19.5492 82.23 19.5312 82.482 19.4952 82.95H12.1692C12.3012 83.55 12.6132 84.024 13.1052 84.372C13.5972 84.72 14.2092 84.894 14.9412 84.894C15.4452 84.894 15.8892 84.822 16.2732 84.678C16.6692 84.522 17.0352 84.282 17.3712 83.958L18.8652 85.578C17.9532 86.622 16.6212 87.144 14.8692 87.144C13.7772 87.144 12.8112 86.934 11.9712 86.514C11.1312 86.082 10.4832 85.488 10.0272 84.732C9.57116 83.976 9.34316 83.118 9.34316 82.158C9.34316 81.21 9.56516 80.358 10.0092 79.602C10.4652 78.834 11.0832 78.24 11.8632 77.82C12.6552 77.388 13.5372 77.172 14.5092 77.172C15.4572 77.172 16.3152 77.376 17.0832 77.784C17.8512 78.192 18.4512 78.78 18.8832 79.548C19.3272 80.304 19.5492 81.186 19.5492 82.194ZM14.5272 79.296C13.8912 79.296 13.3572 79.476 12.9252 79.836C12.4932 80.196 12.2292 80.688 12.1332 81.312H16.9032C16.8072 80.7 16.5432 80.214 16.1112 79.854C15.6792 79.482 15.1512 79.296 14.5272 79.296ZM32.4677 84.696V89.088H29.8577V87H23.0537V89.088H20.4437V84.696H20.8397C21.4397 84.684 21.8537 84.33 22.0817 83.634C22.3097 82.938 22.4537 81.948 22.5137 80.664L22.6397 77.316H31.0817V84.696H32.4677ZM25.0517 80.862C25.0157 81.846 24.9377 82.65 24.8177 83.274C24.7097 83.898 24.4997 84.372 24.1877 84.696H28.2737V79.62H25.1057L25.0517 80.862ZM34.2348 77.316H37.0248V83.076L41.7408 77.316H44.3148V87H41.5248V81.24L36.8268 87H34.2348V77.316ZM47.0141 77.316H49.8041V81.096H54.0161V77.316H56.8241V87H54.0161V83.382H49.8041V87H47.0141V77.316ZM59.5121 77.316H62.3021V83.076L67.0181 77.316H69.5921V87H66.8021V81.24L62.1041 87H59.5121V77.316ZM83.1994 84.696V89.124H80.5894V87H72.2914V77.316H75.0814V84.696H78.9874V77.316H81.7954V84.696H83.1994ZM98.1989 79.62H94.9229V87H92.1329V79.62H88.8569V77.316H98.1989V79.62ZM108.705 82.194C108.705 82.23 108.687 82.482 108.651 82.95H101.325C101.457 83.55 101.769 84.024 102.261 84.372C102.753 84.72 103.365 84.894 104.097 84.894C104.601 84.894 105.045 84.822 105.429 84.678C105.825 84.522 106.191 84.282 106.527 83.958L108.021 85.578C107.109 86.622 105.777 87.144 104.025 87.144C102.933 87.144 101.967 86.934 101.127 86.514C100.287 86.082 99.6394 85.488 99.1834 84.732C98.7274 83.976 98.4994 83.118 98.4994 82.158C98.4994 81.21 98.7214 80.358 99.1654 79.602C99.6214 78.834 100.239 78.24 101.019 77.82C101.811 77.388 102.693 77.172 103.665 77.172C104.613 77.172 105.471 77.376 106.239 77.784C107.007 78.192 107.607 78.78 108.039 79.548C108.483 80.304 108.705 81.186 108.705 82.194ZM103.683 79.296C103.047 79.296 102.513 79.476 102.081 79.836C101.649 80.196 101.385 80.688 101.289 81.312H106.059C105.963 80.7 105.699 80.214 105.267 79.854C104.835 79.482 104.307 79.296 103.683 79.296ZM116.678 87L114.554 84.03L112.358 87H109.298L113.024 82.122L109.424 77.316H112.574L114.626 80.142L116.732 77.316H119.72L116.12 82.05L119.864 87H116.678ZM121.246 77.316H124.036V81.096H128.248V77.316H131.056V87H128.248V83.382H124.036V87H121.246V77.316ZM133.745 77.316H136.535V83.076L141.251 77.316H143.825V87H141.035V81.24L136.337 87H133.745V77.316ZM150.79 83.328H149.332V87H146.524V77.316H149.332V81.078H150.844L153.472 77.316H156.46L153.076 81.96L156.694 87H153.382L150.79 83.328ZM158.073 77.316H160.863V83.076L165.579 77.316H168.153V87H165.363V81.24L160.665 87H158.073V77.316ZM183.348 81.942C184.488 82.326 185.058 83.094 185.058 84.246C185.058 85.122 184.728 85.8 184.068 86.28C183.408 86.76 182.424 87 181.116 87H175.95V77.316H180.9C182.112 77.316 183.06 77.538 183.744 77.982C184.428 78.414 184.77 79.026 184.77 79.818C184.77 80.298 184.644 80.724 184.392 81.096C184.152 81.456 183.804 81.738 183.348 81.942ZM178.524 81.294H180.648C181.632 81.294 182.124 80.946 182.124 80.25C182.124 79.566 181.632 79.224 180.648 79.224H178.524V81.294ZM180.882 85.092C181.914 85.092 182.43 84.738 182.43 84.03C182.43 83.658 182.31 83.388 182.07 83.22C181.83 83.04 181.452 82.95 180.936 82.95H178.524V85.092H180.882ZM191.755 87.144C190.723 87.144 189.793 86.934 188.965 86.514C188.149 86.082 187.507 85.488 187.039 84.732C186.583 83.976 186.355 83.118 186.355 82.158C186.355 81.198 186.583 80.34 187.039 79.584C187.507 78.828 188.149 78.24 188.965 77.82C189.793 77.388 190.723 77.172 191.755 77.172C192.775 77.172 193.663 77.388 194.419 77.82C195.187 78.24 195.745 78.846 196.093 79.638L193.915 80.808C193.411 79.92 192.685 79.476 191.737 79.476C191.005 79.476 190.399 79.716 189.919 80.196C189.439 80.676 189.199 81.33 189.199 82.158C189.199 82.986 189.439 83.64 189.919 84.12C190.399 84.6 191.005 84.84 191.737 84.84C192.697 84.84 193.423 84.396 193.915 83.508L196.093 84.696C195.745 85.464 195.187 86.064 194.419 86.496C193.663 86.928 192.775 87.144 191.755 87.144ZM207.09 82.194C207.09 82.23 207.072 82.482 207.036 82.95H199.71C199.842 83.55 200.154 84.024 200.646 84.372C201.138 84.72 201.75 84.894 202.482 84.894C202.986 84.894 203.43 84.822 203.814 84.678C204.21 84.522 204.576 84.282 204.912 83.958L206.406 85.578C205.494 86.622 204.162 87.144 202.41 87.144C201.318 87.144 200.352 86.934 199.512 86.514C198.672 86.082 198.024 85.488 197.568 84.732C197.112 83.976 196.884 83.118 196.884 82.158C196.884 81.21 197.106 80.358 197.55 79.602C198.006 78.834 198.624 78.24 199.404 77.82C200.196 77.388 201.078 77.172 202.05 77.172C202.998 77.172 203.856 77.376 204.624 77.784C205.392 78.192 205.992 78.78 206.424 79.548C206.868 80.304 207.09 81.186 207.09 82.194ZM202.068 79.296C201.432 79.296 200.898 79.476 200.466 79.836C200.034 80.196 199.77 80.688 199.674 81.312H204.444C204.348 80.7 204.084 80.214 203.652 79.854C203.22 79.482 202.692 79.296 202.068 79.296ZM217.001 79.62H212.033V87H209.243V77.316H217.001V79.62ZM228.64 84.696V89.088H226.03V87H219.226V89.088H216.616V84.696H217.012C217.612 84.684 218.026 84.33 218.254 83.634C218.482 82.938 218.626 81.948 218.686 80.664L218.812 77.316H227.254V84.696H228.64ZM221.224 80.862C221.188 81.846 221.11 82.65 220.99 83.274C220.882 83.898 220.672 84.372 220.36 84.696H224.446V79.62H221.278L221.224 80.862ZM234.169 77.172C235.669 77.172 236.821 77.532 237.625 78.252C238.429 78.96 238.831 80.034 238.831 81.474V87H236.203V85.794C235.675 86.694 234.691 87.144 233.251 87.144C232.507 87.144 231.859 87.018 231.307 86.766C230.767 86.514 230.353 86.166 230.065 85.722C229.777 85.278 229.633 84.774 229.633 84.21C229.633 83.31 229.969 82.602 230.641 82.086C231.325 81.57 232.375 81.312 233.791 81.312H236.023C236.023 80.7 235.837 80.232 235.465 79.908C235.093 79.572 234.535 79.404 233.791 79.404C233.275 79.404 232.765 79.488 232.261 79.656C231.769 79.812 231.349 80.028 231.001 80.304L229.993 78.342C230.521 77.97 231.151 77.682 231.883 77.478C232.627 77.274 233.389 77.172 234.169 77.172ZM233.953 85.254C234.433 85.254 234.859 85.146 235.231 84.93C235.603 84.702 235.867 84.372 236.023 83.94V82.95H234.097C232.945 82.95 232.369 83.328 232.369 84.084C232.369 84.444 232.507 84.732 232.783 84.948C233.071 85.152 233.461 85.254 233.953 85.254ZM253.766 81.942C254.906 82.326 255.476 83.094 255.476 84.246C255.476 85.122 255.146 85.8 254.486 86.28C253.826 86.76 252.842 87 251.534 87H246.368V77.316H251.318C252.53 77.316 253.478 77.538 254.162 77.982C254.846 78.414 255.188 79.026 255.188 79.818C255.188 80.298 255.062 80.724 254.81 81.096C254.57 81.456 254.222 81.738 253.766 81.942ZM248.942 81.294H251.066C252.05 81.294 252.542 80.946 252.542 80.25C252.542 79.566 252.05 79.224 251.066 79.224H248.942V81.294ZM251.3 85.092C252.332 85.092 252.848 84.738 252.848 84.03C252.848 83.658 252.728 83.388 252.488 83.22C252.248 83.04 251.87 82.95 251.354 82.95H248.942V85.092H251.3ZM91.3021 103.316H94.0921V107.096H98.3041V103.316H101.112V113H98.3041V109.382H94.0921V113H91.3021V103.316ZM107.562 103.172C109.062 103.172 110.214 103.532 111.018 104.252C111.822 104.96 112.224 106.034 112.224 107.474V113H109.596V111.794C109.068 112.694 108.084 113.144 106.644 113.144C105.9 113.144 105.252 113.018 104.7 112.766C104.16 112.514 103.746 112.166 103.458 111.722C103.17 111.278 103.026 110.774 103.026 110.21C103.026 109.31 103.362 108.602 104.034 108.086C104.718 107.57 105.768 107.312 107.184 107.312H109.416C109.416 106.7 109.23 106.232 108.858 105.908C108.486 105.572 107.928 105.404 107.184 105.404C106.668 105.404 106.158 105.488 105.654 105.656C105.162 105.812 104.742 106.028 104.394 106.304L103.386 104.342C103.914 103.97 104.544 103.682 105.276 103.478C106.02 103.274 106.782 103.172 107.562 103.172ZM107.346 111.254C107.826 111.254 108.252 111.146 108.624 110.93C108.996 110.702 109.26 110.372 109.416 109.94V108.95H107.49C106.338 108.95 105.762 109.328 105.762 110.084C105.762 110.444 105.9 110.732 106.176 110.948C106.464 111.152 106.854 111.254 107.346 111.254ZM123.951 103.316V113H121.143V105.62H118.083L117.993 107.33C117.945 108.602 117.825 109.658 117.633 110.498C117.441 111.338 117.129 111.998 116.697 112.478C116.265 112.958 115.665 113.198 114.897 113.198C114.489 113.198 114.003 113.126 113.439 112.982L113.583 110.678C113.775 110.702 113.913 110.714 113.997 110.714C114.417 110.714 114.729 110.564 114.933 110.264C115.149 109.952 115.293 109.562 115.365 109.094C115.437 108.614 115.491 107.984 115.527 107.204L115.671 103.316H123.951ZM126.652 103.316H129.442V109.076L134.158 103.316H136.732V113H133.942V107.24L129.244 113H126.652V103.316ZM148.143 103.316V113H145.335V109.4C144.519 109.808 143.619 110.012 142.635 110.012C141.327 110.012 140.337 109.718 139.665 109.13C139.005 108.53 138.675 107.606 138.675 106.358V103.316H141.483V106.178C141.483 106.766 141.633 107.192 141.933 107.456C142.245 107.72 142.689 107.852 143.265 107.852C143.997 107.852 144.687 107.696 145.335 107.384V103.316H148.143ZM150.839 103.316H153.629V109.076L158.345 103.316H160.919V113H158.129V107.24L153.431 113H150.839V103.316ZM163.619 103.316H166.409V109.076L171.125 103.316H173.699V113H170.909V107.24L166.211 113H163.619V103.316Z" fill="white"/>
</svg>
