<svg width="239" height="94" viewBox="0 0 239 94" fill="none" xmlns="http://www.w3.org/2000/svg">
<path d="M7.07 44.3V42.3H5.07V44.3H7.07ZM16.8 44.3V46.3H18.8V44.3H16.8ZM16.8 16.65L14.847 16.2192L14.8 16.432V16.65H16.8ZM17.85 11.89L19.803 12.3208L16.2986 10.6278L17.85 11.89ZM14.49 16.02L15.6207 17.6697L15.8591 17.5063L16.0414 17.2822L14.49 16.02ZM8.26 20.29L6.64719 21.4727L7.79279 23.0349L9.3907 21.9397L8.26 20.29ZM4.41 15.04L3.15396 13.4836L1.66794 14.6828L2.79719 16.2227L4.41 15.04ZM20.37 2.16V0.159999H19.6636L19.114 0.603604L20.37 2.16ZM25.48 2.16H27.48V0.159999H25.48V2.16ZM25.48 44.3H23.48V46.3H25.48V44.3ZM35 44.3H37V42.3H35V44.3ZM35 52V54H37V52H35ZM7.07 52H5.07V54H7.07V52ZM7.07 46.3H16.8V42.3H7.07V46.3ZM18.8 44.3V16.65H14.8V44.3H18.8ZM18.753 17.0808L19.803 12.3208L15.897 11.4592L14.847 16.2192L18.753 17.0808ZM16.2986 10.6278L12.9386 14.7578L16.0414 17.2822L19.4014 13.1522L16.2986 10.6278ZM13.3593 14.3703L7.1293 18.6403L9.3907 21.9397L15.6207 17.6697L13.3593 14.3703ZM9.87281 19.1073L6.02281 13.8573L2.79719 16.2227L6.64719 21.4727L9.87281 19.1073ZM5.66604 16.5964L21.626 3.71639L19.114 0.603604L3.15396 13.4836L5.66604 16.5964ZM20.37 4.16H25.48V0.159999H20.37V4.16ZM23.48 2.16V44.3H27.48V2.16H23.48ZM25.48 46.3H35V42.3H25.48V46.3ZM33 44.3V52H37V44.3H33ZM35 50H7.07V54H35V50ZM9.07 52V44.3H5.07V52H9.07ZM74.4319 8.32L76.0643 9.47554L76.0703 9.46692L74.4319 8.32ZM100.052 8.25L98.3849 9.35509L98.3907 9.36375L100.052 8.25ZM99.7019 46.68L98.072 45.521L98.0677 45.527L98.0634 45.5331L99.7019 46.68ZM74.1519 46.4L72.4529 47.4552L72.4579 47.4632L74.1519 46.4ZM80.9419 40.66L79.0773 41.3835L79.0839 41.4005L79.0908 41.4173L80.9419 40.66ZM93.1219 41.01L91.3042 40.1757L91.2985 40.188L91.293 40.2005L93.1219 41.01ZM93.2619 14.34L91.4011 15.073L93.2619 14.34ZM80.9419 14.06L79.1082 13.2615L79.1028 13.274L79.0975 13.2865L80.9419 14.06ZM72.0219 27.43C72.0219 19.0013 73.4778 13.1294 76.0643 9.47552L72.7995 7.16447C69.5059 11.8173 68.0219 18.6853 68.0219 27.43H72.0219ZM76.0703 9.46692C78.6046 5.84657 82.1909 4.02 87.1019 4.02V0.0199968C80.9995 0.0199968 76.1392 2.39343 72.7934 7.17307L76.0703 9.46692ZM87.1019 4.02C92.4509 4.02 96.0731 5.86773 98.3849 9.35507L101.719 7.14493C98.524 2.3256 93.5129 0.0199968 87.1019 0.0199968V4.02ZM98.3907 9.36375C100.812 12.9749 102.182 18.8832 102.182 27.43H106.182C106.182 18.6168 104.799 11.7385 101.713 7.13625L98.3907 9.36375ZM102.182 27.43C102.182 35.9011 100.704 41.8197 98.072 45.521L101.332 47.839C104.673 43.1403 106.182 36.2255 106.182 27.43H102.182ZM98.0634 45.5331C95.5292 49.1534 91.9428 50.98 87.0319 50.98V54.98C93.1343 54.98 97.9946 52.6066 101.34 47.8269L98.0634 45.5331ZM87.0319 50.98C81.7838 50.98 78.1817 49.0583 75.8458 45.3368L72.4579 47.4632C75.6287 52.515 80.6133 54.98 87.0319 54.98V50.98ZM75.8509 45.3448C73.3768 41.3611 72.0219 35.466 72.0219 27.43H68.0219C68.0219 35.8206 69.4203 42.5722 72.4529 47.4552L75.8509 45.3448ZM77.1219 27.43C77.1219 33.2227 77.7331 37.9197 79.0773 41.3835L82.8064 39.9365C81.7239 37.147 81.1219 33.024 81.1219 27.43H77.1219ZM79.0908 41.4173C79.8179 43.1947 80.8372 44.6828 82.2269 45.725C83.6375 46.783 85.2955 47.28 87.1019 47.28V43.28C86.0616 43.28 85.2696 43.007 84.6269 42.525C83.9632 42.0272 83.3258 41.2053 82.793 39.9027L79.0908 41.4173ZM87.1019 47.28C88.8416 47.28 90.4477 46.8235 91.829 45.8438C93.1946 44.8752 94.2131 43.486 94.9507 41.8195L91.293 40.2005C90.7707 41.3807 90.1558 42.1265 89.5148 42.5812C88.8894 43.0248 88.1155 43.28 87.1019 43.28V47.28ZM94.9395 41.8443C96.4346 38.5872 97.0819 33.6966 97.0819 27.43H93.0819C93.0819 33.5768 92.4225 37.7395 91.3042 40.1757L94.9395 41.8443ZM97.0819 27.43C97.0819 21.6842 96.4708 17.029 95.1227 13.6069L91.4011 15.073C92.4796 17.811 93.0819 21.8825 93.0819 27.43H97.0819ZM95.1227 13.6069C94.4169 11.8153 93.398 10.3159 91.9857 9.26852C90.5565 8.20864 88.8695 7.72 87.0319 7.72V11.72C88.1343 11.72 88.9556 12.0014 89.6031 12.4815C90.2674 12.9741 90.8935 13.7847 91.4011 15.073L95.1227 13.6069ZM87.0319 7.72C85.2693 7.72 83.6436 8.18216 82.2487 9.17627C80.8692 10.1593 79.845 11.5695 79.1082 13.2615L82.7756 14.8585C83.2987 13.6571 83.9196 12.8973 84.5701 12.4337C85.2051 11.9812 85.9945 11.72 87.0319 11.72V7.72ZM79.0975 13.2865C77.7254 16.5584 77.1219 21.3434 77.1219 27.43H81.1219C81.1219 21.4766 81.7317 17.3482 82.7863 14.8334L79.0975 13.2865ZM119.049 8.32L120.681 9.47554L120.687 9.46692L119.049 8.32ZM144.669 8.25L143.002 9.35509L143.007 9.36375L144.669 8.25ZM144.319 46.68L142.689 45.521L142.684 45.527L142.68 45.5331L144.319 46.68ZM118.769 46.4L117.07 47.4552L117.075 47.4632L118.769 46.4ZM125.559 40.66L123.694 41.3835L123.701 41.4005L123.708 41.4173L125.559 40.66ZM137.739 41.01L135.921 40.1757L135.915 40.188L135.91 40.2005L137.739 41.01ZM137.879 14.34L136.018 15.073L137.879 14.34ZM125.559 14.06L123.725 13.2615L123.72 13.274L123.714 13.2865L125.559 14.06ZM116.639 27.43C116.639 19.0013 118.095 13.1294 120.681 9.47552L117.416 7.16447C114.123 11.8173 112.639 18.6853 112.639 27.43H116.639ZM120.687 9.46692C123.221 5.84657 126.808 4.02 131.719 4.02V0.0199968C125.616 0.0199968 120.756 2.39343 117.41 7.17307L120.687 9.46692ZM131.719 4.02C137.068 4.02 140.69 5.86773 143.002 9.35507L146.336 7.14493C143.141 2.3256 138.13 0.0199968 131.719 0.0199968V4.02ZM143.007 9.36375C145.429 12.9749 146.799 18.8832 146.799 27.43H150.799C150.799 18.6168 149.415 11.7385 146.33 7.13625L143.007 9.36375ZM146.799 27.43C146.799 35.9011 145.321 41.8197 142.689 45.521L145.949 47.839C149.29 43.1403 150.799 36.2255 150.799 27.43H146.799ZM142.68 45.5331C140.146 49.1534 136.56 50.98 131.649 50.98V54.98C137.751 54.98 142.611 52.6066 145.957 47.8269L142.68 45.5331ZM131.649 50.98C126.401 50.98 122.798 49.0583 120.463 45.3368L117.075 47.4632C120.246 52.515 125.23 54.98 131.649 54.98V50.98ZM120.468 45.3448C117.994 41.3611 116.639 35.466 116.639 27.43H112.639C112.639 35.8206 114.037 42.5722 117.07 47.4552L120.468 45.3448ZM121.739 27.43C121.739 33.2227 122.35 37.9197 123.694 41.3835L127.423 39.9365C126.341 37.147 125.739 33.024 125.739 27.43H121.739ZM123.708 41.4173C124.435 43.1947 125.454 44.6828 126.844 45.725C128.254 46.783 129.912 47.28 131.719 47.28V43.28C130.678 43.28 129.886 43.007 129.244 42.525C128.58 42.0272 127.943 41.2053 127.41 39.9027L123.708 41.4173ZM131.719 47.28C133.458 47.28 135.065 46.8235 136.446 45.8438C137.811 44.8752 138.83 43.486 139.568 41.8195L135.91 40.2005C135.387 41.3807 134.773 42.1265 134.132 42.5812C133.506 43.0248 132.732 43.28 131.719 43.28V47.28ZM139.556 41.8443C141.051 38.5872 141.699 33.6966 141.699 27.43H137.699C137.699 33.5768 137.039 37.7395 135.921 40.1757L139.556 41.8443ZM141.699 27.43C141.699 21.6842 141.088 17.029 139.739 13.6069L136.018 15.073C137.096 17.811 137.699 21.8825 137.699 27.43H141.699ZM139.739 13.6069C139.034 11.8153 138.015 10.3159 136.602 9.26852C135.173 8.20864 133.486 7.72 131.649 7.72V11.72C132.751 11.72 133.572 12.0014 134.22 12.4815C134.884 12.9741 135.51 13.7847 136.018 15.073L139.739 13.6069ZM131.649 7.72C129.886 7.72 128.26 8.18216 126.865 9.17627C125.486 10.1593 124.462 11.5695 123.725 13.2615L127.392 14.8585C127.916 13.6571 128.536 12.8973 129.187 12.4337C129.822 11.9812 130.611 11.72 131.649 11.72V7.72ZM123.714 13.2865C122.342 16.5584 121.739 21.3434 121.739 27.43H125.739C125.739 21.4766 126.348 17.3482 127.403 14.8334L123.714 13.2865ZM163.665 8.32L165.298 9.47554L165.304 9.46692L163.665 8.32ZM189.285 8.25L187.618 9.35509L187.624 9.36375L189.285 8.25ZM188.935 46.68L187.306 45.521L187.301 45.527L187.297 45.5331L188.935 46.68ZM163.385 46.4L161.686 47.4552L161.692 47.4632L163.385 46.4ZM170.175 40.66L168.311 41.3835L168.318 41.4005L168.324 41.4173L170.175 40.66ZM182.355 41.01L180.538 40.1757L180.532 40.188L180.527 40.2005L182.355 41.01ZM182.495 14.34L180.635 15.073L182.495 14.34ZM170.175 14.06L168.342 13.2615L168.336 13.274L168.331 13.2865L170.175 14.06ZM161.255 27.43C161.255 19.0013 162.711 13.1294 165.298 9.47552L162.033 7.16447C158.74 11.8173 157.255 18.6853 157.255 27.43H161.255ZM165.304 9.46692C167.838 5.84657 171.425 4.02 176.335 4.02V0.0199968C170.233 0.0199968 165.373 2.39343 162.027 7.17307L165.304 9.46692ZM176.335 4.02C181.684 4.02 185.307 5.86773 187.618 9.35507L190.952 7.14493C187.758 2.3256 182.746 0.0199968 176.335 0.0199968V4.02ZM187.624 9.36375C190.045 12.9749 191.415 18.8832 191.415 27.43H195.415C195.415 18.6168 194.032 11.7385 190.947 7.13625L187.624 9.36375ZM191.415 27.43C191.415 35.9011 189.938 41.8197 187.306 45.521L190.565 47.839C193.907 43.1403 195.415 36.2255 195.415 27.43H191.415ZM187.297 45.5331C184.763 49.1534 181.176 50.98 176.265 50.98V54.98C182.368 54.98 187.228 52.6066 190.574 47.8269L187.297 45.5331ZM176.265 50.98C171.017 50.98 167.415 49.0583 165.079 45.3368L161.692 47.4632C164.862 52.515 169.847 54.98 176.265 54.98V50.98ZM165.084 45.3448C162.61 41.3611 161.255 35.466 161.255 27.43H157.255C157.255 35.8206 158.654 42.5722 161.686 47.4552L165.084 45.3448ZM166.355 27.43C166.355 33.2227 166.967 37.9197 168.311 41.3835L172.04 39.9365C170.958 37.147 170.355 33.024 170.355 27.43H166.355ZM168.324 41.4173C169.052 43.1947 170.071 44.6828 171.46 45.725C172.871 46.783 174.529 47.28 176.335 47.28V43.28C175.295 43.28 174.503 43.007 173.86 42.525C173.197 42.0272 172.559 41.2053 172.027 39.9027L168.324 41.4173ZM176.335 47.28C178.075 47.28 179.681 46.8235 181.063 45.8438C182.428 44.8752 183.447 43.486 184.184 41.8195L180.527 40.2005C180.004 41.3807 179.389 42.1265 178.748 42.5812C178.123 43.0248 177.349 43.28 176.335 43.28V47.28ZM184.173 41.8443C185.668 38.5872 186.315 33.6966 186.315 27.43H182.315C182.315 33.5768 181.656 37.7395 180.538 40.1757L184.173 41.8443ZM186.315 27.43C186.315 21.6842 185.704 17.029 184.356 13.6069L180.635 15.073C181.713 17.811 182.315 21.8825 182.315 27.43H186.315ZM184.356 13.6069C183.65 11.8153 182.632 10.3159 181.219 9.26852C179.79 8.20864 178.103 7.72 176.265 7.72V11.72C177.368 11.72 178.189 12.0014 178.837 12.4815C179.501 12.9741 180.127 13.7847 180.635 15.073L184.356 13.6069ZM176.265 7.72C174.503 7.72 172.877 8.18216 171.482 9.17627C170.103 10.1593 169.079 11.5695 168.342 13.2615L172.009 14.8585C172.532 13.6571 173.153 12.8973 173.804 12.4337C174.439 11.9812 175.228 11.72 176.265 11.72V7.72ZM168.331 13.2865C166.959 16.5584 166.355 21.3434 166.355 27.43H170.355C170.355 21.4766 170.965 17.3482 172.02 14.8334L168.331 13.2865ZM204.082 24.42V22.42H202.082V24.42H204.082ZM215.422 24.42V26.42H217.422V24.42H215.422ZM215.422 12.59V10.59H213.422V12.59H215.422ZM223.612 12.59H225.612V10.59H223.612V12.59ZM223.612 24.42H221.612V26.42H223.612V24.42ZM235.022 24.42H237.022V22.42H235.022V24.42ZM235.022 32.26V34.26H237.022V32.26H235.022ZM223.612 32.26V30.26H221.612V32.26H223.612ZM223.612 44.23V46.23H225.612V44.23H223.612ZM215.422 44.23H213.422V46.23H215.422V44.23ZM215.422 32.26H217.422V30.26H215.422V32.26ZM204.082 32.26H202.082V34.26H204.082V32.26ZM204.082 26.42H215.422V22.42H204.082V26.42ZM217.422 24.42V12.59H213.422V24.42H217.422ZM215.422 14.59H223.612V10.59H215.422V14.59ZM221.612 12.59V24.42H225.612V12.59H221.612ZM223.612 26.42H235.022V22.42H223.612V26.42ZM233.022 24.42V32.26H237.022V24.42H233.022ZM235.022 30.26H223.612V34.26H235.022V30.26ZM221.612 32.26V44.23H225.612V32.26H221.612ZM223.612 42.23H215.422V46.23H223.612V42.23ZM217.422 44.23V32.26H213.422V44.23H217.422ZM215.422 30.26H204.082V34.26H215.422V30.26ZM206.082 32.26V24.42H202.082V32.26H206.082Z" fill="white"/>
<path d="M12.748 81.942C13.888 82.326 14.458 83.094 14.458 84.246C14.458 85.122 14.128 85.8 13.468 86.28C12.808 86.76 11.824 87 10.516 87H5.35V77.316H10.3C11.512 77.316 12.46 77.538 13.144 77.982C13.828 78.414 14.17 79.026 14.17 79.818C14.17 80.298 14.044 80.724 13.792 81.096C13.552 81.456 13.204 81.738 12.748 81.942ZM7.924 81.294H10.048C11.032 81.294 11.524 80.946 11.524 80.25C11.524 79.566 11.032 79.224 10.048 79.224H7.924V81.294ZM10.282 85.092C11.314 85.092 11.83 84.738 11.83 84.03C11.83 83.658 11.71 83.388 11.47 83.22C11.23 83.04 10.852 82.95 10.336 82.95H7.924V85.092H10.282ZM21.6413 80.412C22.9013 80.424 23.8553 80.706 24.5033 81.258C25.1513 81.81 25.4753 82.602 25.4753 83.634C25.4753 84.714 25.1093 85.548 24.3773 86.136C23.6453 86.724 22.6073 87.018 21.2633 87.018L16.5473 87V77.316H19.3373V80.412H21.6413ZM26.5193 77.316H29.3093V87H26.5193V77.316ZM21.0113 85.02C21.5513 85.032 21.9653 84.918 22.2533 84.678C22.5413 84.438 22.6853 84.078 22.6853 83.598C22.6853 83.13 22.5413 82.788 22.2533 82.572C21.9773 82.356 21.5633 82.242 21.0113 82.23L19.3373 82.212V85.02H21.0113ZM41.646 77.316V87H38.838V79.62H34.806V87H32.016V77.316H41.646ZM48.8743 87.144C47.8543 87.144 46.9363 86.934 46.1203 86.514C45.3163 86.082 44.6863 85.488 44.2303 84.732C43.7743 83.976 43.5463 83.118 43.5463 82.158C43.5463 81.198 43.7743 80.34 44.2303 79.584C44.6863 78.828 45.3163 78.24 46.1203 77.82C46.9363 77.388 47.8543 77.172 48.8743 77.172C49.8943 77.172 50.8063 77.388 51.6103 77.82C52.4143 78.24 53.0443 78.828 53.5003 79.584C53.9563 80.34 54.1843 81.198 54.1843 82.158C54.1843 83.118 53.9563 83.976 53.5003 84.732C53.0443 85.488 52.4143 86.082 51.6103 86.514C50.8063 86.934 49.8943 87.144 48.8743 87.144ZM48.8743 84.84C49.5943 84.84 50.1823 84.6 50.6383 84.12C51.1063 83.628 51.3403 82.974 51.3403 82.158C51.3403 81.342 51.1063 80.694 50.6383 80.214C50.1823 79.722 49.5943 79.476 48.8743 79.476C48.1543 79.476 47.5603 79.722 47.0923 80.214C46.6243 80.694 46.3903 81.342 46.3903 82.158C46.3903 82.974 46.6243 83.628 47.0923 84.12C47.5603 84.6 48.1543 84.84 48.8743 84.84ZM65.263 77.316V87H62.455V79.62H59.395L59.305 81.33C59.257 82.602 59.137 83.658 58.945 84.498C58.753 85.338 58.441 85.998 58.009 86.478C57.577 86.958 56.977 87.198 56.209 87.198C55.801 87.198 55.315 87.126 54.751 86.982L54.895 84.678C55.087 84.702 55.225 84.714 55.309 84.714C55.729 84.714 56.041 84.564 56.245 84.264C56.461 83.952 56.605 83.562 56.677 83.094C56.749 82.614 56.803 81.984 56.839 81.204L56.983 77.316H65.263ZM67.9633 77.316H70.7533V81.096H74.9653V77.316H77.7733V87H74.9653V83.382H70.7533V87H67.9633V77.316ZM89.8753 82.194C89.8753 82.23 89.8573 82.482 89.8213 82.95H82.4953C82.6273 83.55 82.9393 84.024 83.4313 84.372C83.9233 84.72 84.5353 84.894 85.2673 84.894C85.7713 84.894 86.2153 84.822 86.5993 84.678C86.9953 84.522 87.3613 84.282 87.6973 83.958L89.1913 85.578C88.2793 86.622 86.9473 87.144 85.1953 87.144C84.1033 87.144 83.1373 86.934 82.2973 86.514C81.4573 86.082 80.8093 85.488 80.3533 84.732C79.8973 83.976 79.6693 83.118 79.6693 82.158C79.6693 81.21 79.8913 80.358 80.3353 79.602C80.7913 78.834 81.4093 78.24 82.1893 77.82C82.9813 77.388 83.8633 77.172 84.8353 77.172C85.7833 77.172 86.6413 77.376 87.4093 77.784C88.1773 78.192 88.7773 78.78 89.2093 79.548C89.6533 80.304 89.8753 81.186 89.8753 82.194ZM84.8533 79.296C84.2173 79.296 83.6833 79.476 83.2513 79.836C82.8193 80.196 82.5553 80.688 82.4593 81.312H87.2293C87.1333 80.7 86.8693 80.214 86.4373 79.854C86.0053 79.482 85.4773 79.296 84.8533 79.296ZM92.0277 77.316H94.8177V81.096H99.0297V77.316H101.838V87H99.0297V83.382H94.8177V87H92.0277V77.316ZM104.526 77.316H107.316V81.096H111.528V77.316H114.336V87H111.528V83.382H107.316V87H104.526V77.316ZM122.118 80.412C123.378 80.424 124.332 80.706 124.98 81.258C125.628 81.81 125.952 82.602 125.952 83.634C125.952 84.714 125.586 85.548 124.854 86.136C124.122 86.724 123.084 87.018 121.74 87.018L117.024 87V77.316H119.814V80.412H122.118ZM126.996 77.316H129.786V87H126.996V77.316ZM121.488 85.02C122.028 85.032 122.442 84.918 122.73 84.678C123.018 84.438 123.162 84.078 123.162 83.598C123.162 83.13 123.018 82.788 122.73 82.572C122.454 82.356 122.04 82.242 121.488 82.23L119.814 82.212V85.02H121.488ZM138.577 87L136.453 84.03L134.257 87H131.197L134.923 82.122L131.323 77.316H134.473L136.525 80.142L138.631 77.316H141.619L138.019 82.05L141.763 87H138.577ZM157.873 77.316V87H155.065V79.62H151.033V87H148.243V77.316H157.873ZM166.271 77.172C167.171 77.172 167.987 77.382 168.719 77.802C169.463 78.21 170.045 78.792 170.465 79.548C170.885 80.292 171.095 81.162 171.095 82.158C171.095 83.154 170.885 84.03 170.465 84.786C170.045 85.53 169.463 86.112 168.719 86.532C167.987 86.94 167.171 87.144 166.271 87.144C165.035 87.144 164.063 86.754 163.355 85.974V90.492H160.547V77.316H163.229V78.432C163.925 77.592 164.939 77.172 166.271 77.172ZM165.785 84.84C166.505 84.84 167.093 84.6 167.549 84.12C168.017 83.628 168.251 82.974 168.251 82.158C168.251 81.342 168.017 80.694 167.549 80.214C167.093 79.722 166.505 79.476 165.785 79.476C165.065 79.476 164.471 79.722 164.003 80.214C163.547 80.694 163.319 81.342 163.319 82.158C163.319 82.974 163.547 83.628 164.003 84.12C164.471 84.6 165.065 84.84 165.785 84.84ZM177.599 87.144C176.579 87.144 175.661 86.934 174.845 86.514C174.041 86.082 173.411 85.488 172.955 84.732C172.499 83.976 172.271 83.118 172.271 82.158C172.271 81.198 172.499 80.34 172.955 79.584C173.411 78.828 174.041 78.24 174.845 77.82C175.661 77.388 176.579 77.172 177.599 77.172C178.619 77.172 179.531 77.388 180.335 77.82C181.139 78.24 181.769 78.828 182.225 79.584C182.681 80.34 182.909 81.198 182.909 82.158C182.909 83.118 182.681 83.976 182.225 84.732C181.769 85.488 181.139 86.082 180.335 86.514C179.531 86.934 178.619 87.144 177.599 87.144ZM177.599 84.84C178.319 84.84 178.907 84.6 179.363 84.12C179.831 83.628 180.065 82.974 180.065 82.158C180.065 81.342 179.831 80.694 179.363 80.214C178.907 79.722 178.319 79.476 177.599 79.476C176.879 79.476 176.285 79.722 175.817 80.214C175.349 80.694 175.115 81.342 175.115 82.158C175.115 82.974 175.349 83.628 175.817 84.12C176.285 84.6 176.879 84.84 177.599 84.84ZM194.254 82.194C194.254 82.23 194.236 82.482 194.2 82.95H186.874C187.006 83.55 187.318 84.024 187.81 84.372C188.302 84.72 188.914 84.894 189.646 84.894C190.15 84.894 190.594 84.822 190.978 84.678C191.374 84.522 191.74 84.282 192.076 83.958L193.57 85.578C192.658 86.622 191.326 87.144 189.574 87.144C188.482 87.144 187.516 86.934 186.676 86.514C185.836 86.082 185.188 85.488 184.732 84.732C184.276 83.976 184.048 83.118 184.048 82.158C184.048 81.21 184.27 80.358 184.714 79.602C185.17 78.834 185.788 78.24 186.568 77.82C187.36 77.388 188.242 77.172 189.214 77.172C190.162 77.172 191.02 77.376 191.788 77.784C192.556 78.192 193.156 78.78 193.588 79.548C194.032 80.304 194.254 81.186 194.254 82.194ZM189.232 79.296C188.596 79.296 188.062 79.476 187.63 79.836C187.198 80.196 186.934 80.688 186.838 81.312H191.608C191.512 80.7 191.248 80.214 190.816 79.854C190.384 79.482 189.856 79.296 189.232 79.296ZM200.673 83.328H199.215V87H196.407V77.316H199.215V81.078H200.727L203.355 77.316H206.343L202.959 81.96L206.577 87H203.265L200.673 83.328ZM216.004 79.62H212.728V87H209.938V79.62H206.662V77.316H216.004V79.62ZM221.632 87.144C220.612 87.144 219.694 86.934 218.878 86.514C218.074 86.082 217.444 85.488 216.988 84.732C216.532 83.976 216.304 83.118 216.304 82.158C216.304 81.198 216.532 80.34 216.988 79.584C217.444 78.828 218.074 78.24 218.878 77.82C219.694 77.388 220.612 77.172 221.632 77.172C222.652 77.172 223.564 77.388 224.368 77.82C225.172 78.24 225.802 78.828 226.258 79.584C226.714 80.34 226.942 81.198 226.942 82.158C226.942 83.118 226.714 83.976 226.258 84.732C225.802 85.488 225.172 86.082 224.368 86.514C223.564 86.934 222.652 87.144 221.632 87.144ZM221.632 84.84C222.352 84.84 222.94 84.6 223.396 84.12C223.864 83.628 224.098 82.974 224.098 82.158C224.098 81.342 223.864 80.694 223.396 80.214C222.94 79.722 222.352 79.476 221.632 79.476C220.912 79.476 220.318 79.722 219.85 80.214C219.382 80.694 219.148 81.342 219.148 82.158C219.148 82.974 219.382 83.628 219.85 84.12C220.318 84.6 220.912 84.84 221.632 84.84ZM236.271 81.942C237.411 82.326 237.981 83.094 237.981 84.246C237.981 85.122 237.651 85.8 236.991 86.28C236.331 86.76 235.347 87 234.039 87H228.873V77.316H233.823C235.035 77.316 235.983 77.538 236.667 77.982C237.351 78.414 237.693 79.026 237.693 79.818C237.693 80.298 237.567 80.724 237.315 81.096C237.075 81.456 236.727 81.738 236.271 81.942ZM231.447 81.294H233.571C234.555 81.294 235.047 80.946 235.047 80.25C235.047 79.566 234.555 79.224 233.571 79.224H231.447V81.294ZM233.805 85.092C234.837 85.092 235.353 84.738 235.353 84.03C235.353 83.658 235.233 83.388 234.993 83.22C234.753 83.04 234.375 82.95 233.859 82.95H231.447V85.092H233.805Z" fill="white"/>
</svg>
